<svg viewBox="0 0 514 126" xmlns="http://www.w3.org/2000/svg" xmlns:xlink="http://www.w3.org/1999/xlink" width="514.000000" height="126.000000" fill="none" customFrame="#000000">
	<defs>
		<linearGradient id="paint_linear_5" x1="420" x2="503.791016" y1="18" y2="76.9989243" gradientUnits="userSpaceOnUse">
			<stop stop-color="rgb(59,130,246)" offset="0" stop-opacity="1" />
			<stop stop-color="rgb(139,92,246)" offset="1" stop-opacity="1" />
		</linearGradient>
		<linearGradient id="paint_linear_6" x1="451.333374" x2="535.12439" y1="107" y2="48.0010834" gradientUnits="userSpaceOnUse">
			<stop stop-color="rgb(139,92,246)" offset="0" stop-opacity="1" />
			<stop stop-color="rgb(6,182,212)" offset="1" stop-opacity="1" />
		</linearGradient>
	</defs>
	<g id="组合 10">
		<path id="" d="M43.0225 105.638Q34.4287 105.638 27.6074 103.006Q20.7861 100.375 16.0596 95.272Q11.333 90.1426 8.78174 82.7842Q6.25732 75.3989 6.25732 65.8384Q6.25732 56.251 9.18457 48.8926Q12.1118 41.5073 17.1606 36.4048Q22.2095 31.3022 29.0308 28.6704Q35.8521 26.0117 43.667 26.0117Q48.3936 26.0117 52.2339 26.7368Q56.1011 27.4351 58.9478 28.3213Q61.8213 29.2075 63.6743 30.2012Q65.5542 31.168 66.333 31.6245L62.251 42.9575Q59.6191 41.2925 54.7046 39.8154Q49.8169 38.3384 44.0967 38.3384Q39.1553 38.3384 34.8584 40.0571Q30.5884 41.749 27.4463 45.1597Q24.3042 48.5703 22.5317 53.7534Q20.7861 58.9097 20.7861 65.731Q20.7861 71.7734 22.1558 76.8491Q23.5522 81.8979 26.3989 85.5771Q29.2725 89.2563 33.6499 91.2974Q38.0542 93.3384 44.231 93.3384Q51.5894 93.3384 56.2085 91.8613Q60.8276 90.3574 63.3521 89.0415L67.1118 100.375Q65.769 101.261 63.5132 102.147Q61.2573 103.006 58.1689 103.839Q55.1074 104.671 51.2402 105.155Q47.3999 105.638 43.0225 105.638ZM129.255 75.1841Q129.255 82.0054 127.268 87.6182Q125.281 93.231 121.655 97.2056Q118.03 101.153 112.9 103.355Q107.798 105.531 101.648 105.531Q95.4712 105.531 90.3955 103.355Q85.3467 101.153 81.7212 97.2056Q78.0957 93.231 76.0547 87.6182Q74.0405 82.0054 74.0405 75.1841Q74.0405 68.3628 76.0547 62.8037Q78.0957 57.2446 81.7749 53.2969Q85.481 49.3223 90.5298 47.2007Q95.5786 45.0522 101.648 45.0522Q107.69 45.0522 112.793 47.2007Q117.922 49.3223 121.548 53.2969Q125.173 57.2446 127.214 62.8037Q129.255 68.3628 129.255 75.1841ZM115.613 75.1841Q115.613 66.5903 111.907 61.5952Q108.228 56.6001 101.648 56.6001Q95.0415 56.6001 91.3623 61.5952Q87.6831 66.5903 87.6831 75.1841Q87.6831 83.8584 91.3623 88.9341Q95.0415 93.9829 101.648 93.9829Q108.228 93.9829 111.907 88.9341Q115.613 83.8584 115.613 75.1841ZM142.989 48.3286Q146.857 47.2275 153.007 46.2607Q159.183 45.2671 166.649 45.2671Q173.685 45.2671 178.412 47.2007Q183.138 49.1074 185.931 52.5718Q188.751 56.0361 189.906 60.9507Q191.061 65.8384 191.061 71.666L191.061 104L177.767 104L177.767 73.7607Q177.767 69.1416 177.15 65.8921Q176.559 62.6426 175.162 60.6016Q173.793 58.5605 171.429 57.6475Q169.066 56.7075 165.655 56.7075Q163.131 56.7075 160.365 57.0298Q157.626 57.3521 156.31 57.5669L156.31 104L142.989 104L142.989 48.3286ZM221.761 94.4395Q227.051 94.4395 229.468 93.1772Q231.885 91.8882 231.885 88.8267Q231.885 85.9531 229.28 84.1001Q226.702 82.2202 220.767 80.0181Q217.142 78.7021 214.107 77.2251Q211.099 75.7212 208.897 73.7607Q206.695 71.7734 205.433 68.9805Q204.171 66.1606 204.171 62.0786Q204.171 54.1831 209.998 49.6177Q215.826 45.0522 225.843 45.0522Q230.892 45.0522 235.511 45.9922Q240.13 46.9053 242.44 47.7915L240.023 58.5605Q237.82 57.5669 234.41 56.7612Q230.999 55.9287 226.487 55.9287Q222.432 55.9287 219.881 57.2983Q217.357 58.668 217.357 61.5415Q217.357 62.9648 217.84 64.0659Q218.35 65.167 219.559 66.1069Q220.767 67.0469 222.755 67.9868Q224.742 68.8999 227.589 69.8936Q232.315 71.666 235.618 73.3848Q238.922 75.0767 241.07 77.2251Q243.218 79.3467 244.185 82.1128Q245.179 84.8521 245.179 88.7192Q245.179 96.9639 239.083 101.207Q232.986 105.423 221.653 105.423Q214.053 105.423 209.434 104.161Q204.815 102.899 202.962 102.12L205.272 91.0288Q208.226 92.2373 212.335 93.3384Q216.47 94.4395 221.761 94.4395ZM309.655 75.1841Q309.655 82.0054 307.668 87.6182Q305.681 93.231 302.055 97.2056Q298.43 101.153 293.3 103.355Q288.198 105.531 282.048 105.531Q275.871 105.531 270.796 103.355Q265.747 101.153 262.121 97.2056Q258.496 93.231 256.455 87.6182Q254.441 82.0054 254.441 75.1841Q254.441 68.3628 256.455 62.8037Q258.496 57.2446 262.175 53.2969Q265.881 49.3223 270.93 47.2007Q275.979 45.0522 282.048 45.0522Q288.09 45.0522 293.193 47.2007Q298.322 49.3223 301.948 53.2969Q305.573 57.2446 307.614 62.8037Q309.655 68.3628 309.655 75.1841ZM296.013 75.1841Q296.013 66.5903 292.307 61.5952Q288.628 56.6001 282.048 56.6001Q275.442 56.6001 271.762 61.5952Q268.083 66.5903 268.083 75.1841Q268.083 83.8584 271.762 88.9341Q275.442 93.9829 282.048 93.9829Q288.628 93.9829 292.307 88.9341Q296.013 83.8584 296.013 75.1841ZM343.424 105.101Q337.489 104.994 333.568 103.785Q329.674 102.577 327.364 100.321Q325.055 98.0649 324.115 94.708Q323.175 91.3511 323.175 87.0542L323.175 20.8286L336.495 18.6533L336.495 84.5298Q336.495 86.9468 336.871 88.6118Q337.247 90.25 338.241 91.4048Q339.234 92.5596 340.926 93.1772Q342.645 93.7681 345.277 94.0903L343.424 105.101ZM352.891 75.5063Q352.891 67.9331 355.146 62.2129Q357.402 56.4927 361.135 52.7061Q364.868 48.8926 369.702 46.9858Q374.563 45.0522 379.612 45.0522Q391.482 45.0522 398.142 52.4106Q404.802 59.769 404.802 74.4053Q404.802 75.5063 404.748 76.9028Q404.695 78.2725 404.587 79.3467L366.641 79.3467Q367.178 86.3022 371.528 90.0889Q375.879 93.8755 384.123 93.8755Q388.957 93.8755 392.959 93.0161Q396.987 92.1299 399.297 91.1362L401.069 102.013Q399.968 102.577 398.035 103.194Q396.101 103.785 393.63 104.269Q391.16 104.779 388.286 105.101Q385.439 105.423 382.458 105.423Q374.885 105.423 369.272 103.167Q363.66 100.912 360.034 96.9102Q356.409 92.8818 354.636 87.457Q352.891 82.0054 352.891 75.5063ZM391.482 69.5713Q391.482 66.832 390.703 64.3613Q389.951 61.8638 388.447 60.0645Q386.97 58.2383 384.822 57.1909Q382.7 56.1436 379.719 56.1436Q376.631 56.1436 374.321 57.2983Q372.012 58.4531 370.427 60.333Q368.843 62.2129 367.956 64.6299Q367.07 67.0469 366.748 69.5713L391.482 69.5713Z" fill="rgb(0,0,0)" fill-rule="nonzero" />
		<g id="组合 8">
			<path id="矢量 43" d="M420 18L451.333 18L482.667 62.5L451.333 107L420 107L451.333 62.5L420 18Z" fill="url(#paint_linear_5)" fill-rule="evenodd" />
			<path id="矢量 44" d="M514 18L482.667 18L451.333 62.5L482.667 107L514 107L482.667 62.5L514 18Z" opacity="0.850000024" fill="url(#paint_linear_6)" fill-rule="evenodd" />
		</g>
	</g>
</svg>
